<svg width="42" height="42" viewBox="0 0 42 42" fill="none" xmlns="http://www.w3.org/2000/svg">
<path fill-rule="evenodd" clip-rule="evenodd" d="M21 42C32.598 42 42 32.598 42 21C42 9.40202 32.598 0 21 0C9.40202 0 0 9.40202 0 21C0 32.598 9.40202 42 21 42Z" fill="#D8D8D8"/>
<mask id="mask0" mask-type="alpha" maskUnits="userSpaceOnUse" x="0" y="0" width="42" height="42">
<path fill-rule="evenodd" clip-rule="evenodd" d="M21 42C32.598 42 42 32.598 42 21C42 9.40202 32.598 0 21 0C9.40202 0 0 9.40202 0 21C0 32.598 9.40202 42 21 42Z" fill="white"/>
</mask>
<g mask="url(#mask0)">
<rect width="42" height="42" fill="#626BA3"/>
</g>
<mask id="mask1" mask-type="alpha" maskUnits="userSpaceOnUse" x="10" y="9" width="21" height="24">
<path fill-rule="evenodd" clip-rule="evenodd" d="M10 9H31V33H10V9Z" fill="white"/>
</mask>
<g mask="url(#mask1)">
<path fill-rule="evenodd" clip-rule="evenodd" d="M28.9078 21.722H27.4621L26.99 21.3206H17.3244C17.1613 23.1202 14.9477 24.7196 16.5633 26.4973C17.7724 27.8291 19.7289 29.446 19.9826 31.0331L28.9078 21.722ZM19.9855 10.9722C19.7215 12.5587 17.7639 14.1806 16.5633 15.5024C14.9483 17.2806 17.1602 18.8801 17.3243 20.6802H26.99L27.4621 20.2782H28.9072L19.9855 10.9722ZM14.6541 15.4535C15.8273 14.0092 19.9673 11.0194 18.8904 9.29009C18.6749 8.94321 19.1481 8.89768 19.4268 9.20632C19.7575 9.57288 19.9342 9.94899 19.9923 10.3285L29.5372 20.2782H31L30.2703 21.0007L31 21.722H29.5377L19.9855 31.6796C19.9239 32.0557 19.7466 32.429 19.4177 32.7933C19.1384 33.102 18.6743 33.057 18.8904 32.7113C20.1628 30.666 16.0685 28.2873 14.6541 26.5468C13.1041 24.6409 15.076 23.1921 15.2493 21.3206H13.3076C12.9787 21.3206 12.823 21.7608 12.953 21.9918C12.0352 21.6697 10.9412 21.3279 10 21.0007C10.9412 20.6735 12.0352 20.3305 12.953 20.0078C12.823 20.2395 12.9787 20.6802 13.3076 20.6802H15.2493C15.0766 18.8081 13.1041 17.3599 14.6541 15.4535Z" fill="#FEFEFE"/>
</g>
</svg>
