<svg width="42" height="42" viewBox="0 0 42 42" fill="none" xmlns="http://www.w3.org/2000/svg">
<path fill-rule="evenodd" clip-rule="evenodd" d="M21 42C32.598 42 42 32.598 42 21C42 9.40202 32.598 0 21 0C9.40202 0 0 9.40202 0 21C0 32.598 9.40202 42 21 42Z" fill="#D8D8D8"/>
<mask id="mask0" mask-type="alpha" maskUnits="userSpaceOnUse" x="0" y="0" width="42" height="42">
<path fill-rule="evenodd" clip-rule="evenodd" d="M21 42C32.598 42 42 32.598 42 21C42 9.40202 32.598 0 21 0C9.40202 0 0 9.40202 0 21C0 32.598 9.40202 42 21 42Z" fill="white"/>
</mask>
<g mask="url(#mask0)">
<rect width="42" height="42" fill="#DA4480"/>
</g>
<mask id="mask1" mask-type="alpha" maskUnits="userSpaceOnUse" x="10" y="9" width="21" height="24">
<path fill-rule="evenodd" clip-rule="evenodd" d="M10 9H31V33H10V9Z" fill="white"/>
</mask>
<g mask="url(#mask1)">
</g>
<path fill-rule="evenodd" clip-rule="evenodd" d="M16.3361 12.1973C15.7023 12.5398 15.1964 13.9405 15.0291 14.6248C14.8241 15.4614 15.0991 16.2127 14.4349 16.9921C14.0017 17.4991 13.4575 18.0687 13.2272 18.4701C12.9956 18.8746 13.222 19.1109 13.7338 19.3447C14.4187 19.6565 14.2695 19.9377 14.0555 20.4219C14.0951 20.5275 14.4051 20.8583 14.5588 20.9627C14.4038 21.0621 14.1541 21.3033 14.1638 21.5421C14.4797 21.7937 14.9266 21.8483 14.7417 22.4707C14.5115 23.311 14.9201 23.6719 15.5441 23.786C16.1298 23.8934 18.1931 23.5098 18.8073 23.376C18.8787 23.4705 18.9902 23.9689 19 24.1457C20.2259 23.395 21.4543 22.4455 21.6314 19.9966C23.0162 26.8273 13.1059 24.2107 12 29.0277C15.4915 25.79 23.1972 27.4564 24.1345 21.558C25.0322 28.73 13.7934 25.9195 12.2653 31.0543C16.061 28.0401 22.3397 28.8619 25.2974 25.3039C24.2318 29.7795 14.0905 28.4464 12.7699 33C14.4356 31.6153 18.5401 30.7217 22.0251 29.7955C28.6327 28.0401 29.3987 21.9539 28.8603 16.3133C27.8602 5.84109 14.206 8.68471 16.3361 12.1973Z" fill="#FEFEFE"/>
</svg>
